<svg width="120" height="120" viewBox="0 0 120 120" fill="none" xmlns="http://www.w3.org/2000/svg">
<path d="M0 60C0 26.8629 26.8629 0 60 0C93.1371 0 120 26.8629 120 60C120 93.1371 93.1371 120 60 120C26.8629 120 0 93.1371 0 60Z" fill="white"/>
<path d="M24.0285 38.096H24.9885C24.9458 38.096 27.3138 38.1387 32.0925 38.224C36.1885 38.2667 39.7298 38.2667 42.7165 38.224L47.8365 38.096H48.5405V42.704H43.3565V73.872L43.1005 74.64C42.7165 76.1333 41.9485 77.456 40.7965 78.608C38.7058 80.6987 35.6765 81.9787 31.7085 82.448C29.2338 82.7467 26.8658 82.7893 24.6045 82.576C20.5512 82.064 17.6925 80.8053 16.0285 78.8C15.4312 78.0747 15.0258 77.2213 14.8125 76.24C14.5565 75.2587 14.5565 74.2133 14.8125 73.104C15.3245 71.1413 16.6045 69.84 18.6525 69.2C18.9938 69.1147 19.5485 69.072 20.3165 69.072C21.0845 69.072 21.6605 69.1147 22.0445 69.2C24.0498 69.8827 25.3085 71.184 25.8205 73.104C26.0765 74.0853 26.0765 75.1307 25.8205 76.24C25.5645 77.136 25.2658 77.776 24.9245 78.16C24.7538 78.416 24.6898 78.544 24.7325 78.544C24.9885 78.6293 25.7565 78.7147 27.0365 78.8C27.8045 78.8 28.3378 78.7787 28.6365 78.736C30.9405 78.352 32.3485 76.9653 32.8605 74.576C32.9458 74.192 33.0098 68.7733 33.0525 58.32V42.704H24.0285V38.096Z" fill="black"/>
<path d="M55.3085 38.096H69.7725C79.6285 38.096 84.7485 38.1173 85.1325 38.16C88.0765 38.3307 90.6792 38.992 92.9405 40.144C95.1592 41.296 96.8232 42.9173 97.9325 45.008C98.3165 45.776 98.5938 46.608 98.7645 47.504C98.9778 48.5707 98.9992 49.7227 98.8285 50.96C98.3592 52.88 97.3778 54.5227 95.8845 55.888C94.2205 57.2533 92.2365 58.2347 89.9325 58.832L89.2285 59.024L89.6765 59.088C93.7298 59.7707 96.7165 61.2427 98.6365 63.504C99.7032 64.8267 100.428 66.32 100.812 67.984C100.898 68.368 100.941 68.9867 100.941 69.84C100.983 71.632 100.557 73.3813 99.6605 75.088C97.8258 78.5867 94.4978 80.7627 89.6765 81.616C89.3778 81.6587 89.0578 81.7013 88.7165 81.744C87.5645 81.9147 81.5698 82 70.7325 82H55.3085V77.392H62.2205V42.704H55.3085V38.096ZM84.4285 42.896L83.9805 42.768L78.0925 42.704H72.2045V57.232H76.8125C80.0125 57.232 81.7405 57.2107 81.9965 57.168C85.2392 56.784 87.2445 54.992 88.0125 51.792C88.0125 51.664 88.0338 51.536 88.0765 51.408C88.3325 50.3413 88.3752 49.2533 88.2045 48.144C87.8632 45.328 86.6045 43.5787 84.4285 42.896ZM85.5165 61.328L85.0685 61.136H72.2045V77.392H77.9005C82.1672 77.392 84.6632 77.2853 85.3885 77.072C88.2045 76.176 89.7192 73.9787 89.9325 70.48C89.9752 69.968 89.9752 69.4347 89.9325 68.88C89.8045 67.344 89.5485 66.064 89.1645 65.04C88.3965 63.1627 87.1805 61.9253 85.5165 61.328Z" fill="black"/>
</svg>
